<svg width="423" height="742" viewBox="0 0 423 742" fill="none" xmlns="http://www.w3.org/2000/svg">
<g opacity="0.2">
<path d="M172.067 161.731C158.074 152.488 158.774 143.382 160.873 139.984C158.308 130.243 152.058 113.752 147.58 125.712C141.983 140.663 142.683 152.896 144.082 164.449C145.481 176.002 176.964 197.069 194.455 192.312C211.945 187.555 189.557 173.284 172.067 161.731Z" fill="#D4EFEE"/>
<path d="M194.456 52.9964C236.993 58.9768 205.183 74.5167 183.961 81.5391L146.182 124.353C144.549 98.0758 151.919 47.0161 194.456 52.9964Z" fill="#D4EFEE"/>
<path d="M278.411 134.547C273.373 129.654 259.521 130.243 253.224 131.149L241.506 115.308C272.289 112.59 284.707 140.663 278.411 134.547Z" fill="#D4EFEE"/>
<path d="M275.704 162.58C270.015 158.332 257.639 142.488 252.524 136.586L235.61 142.145C261.62 174.642 282.792 167.873 275.704 162.58Z" fill="#D4EFEE"/>
<path d="M113.144 89.9858C124.898 86.7238 138.564 95.4225 143.928 100.18L146.027 113.771C135.765 115.131 112.305 116.626 100.551 111.733C85.859 105.616 98.4522 94.0633 113.144 89.9858Z" fill="#D4EFEE"/>
<path fill-rule="evenodd" clip-rule="evenodd" d="M143.75 86.2085C142.263 86.6109 138.319 88.5909 138.058 90.5811C140.282 98.3805 142.066 108.001 136.714 122.993C136.327 124.077 136.679 125.281 137.595 126.003L166.942 149.147C167.359 149.476 167.865 149.681 168.4 149.737L220.106 155.183C220.654 155.241 221.208 155.139 221.697 154.891L255.237 137.874C255.904 137.535 256.403 136.949 256.621 136.247C256.839 135.546 256.757 134.789 256.395 134.147L237.127 108.672C236.602 108.501 234.149 106.919 235.2 106.919C233.848 107.644 235.381 108.226 236.124 109.543L250.119 134.33L219.866 149.68L169.819 144.41L142.62 122.959C147.673 107.65 146.662 96.9987 144.32 88.7833C143.907 87.3344 145.237 85.806 143.75 86.2085Z" fill="#14403E"/>
<path d="M196.647 84.455C192.736 80.1017 186.17 78.56 183.375 78.3332C169.964 76.1566 149.381 83.5481 141.464 87.1758C145.376 103.5 143.094 117.785 141.464 123.226L169.405 144.992L219.699 150.434L250.434 134.789L237.162 108.942L225.985 97.3787C223.191 91.393 215.042 89.4431 211.316 89.2164C207.405 84.8631 199.907 84.2283 196.647 84.455Z" fill="#005955"/>
<mask id="mask0_1597_5988" style="mask-type:alpha" maskUnits="userSpaceOnUse" x="141" y="77" width="110" height="74">
<path d="M196.555 84.2578C192.637 79.9084 186.06 78.368 183.262 78.1415C169.829 75.9668 149.214 83.3516 141.284 86.9761C145.202 103.286 142.917 117.558 141.284 122.994L169.269 144.741L219.642 150.178L250.426 134.547L237.133 108.723L225.939 97.1699C223.14 91.1896 214.978 89.2414 211.247 89.0149C207.329 84.6655 199.82 84.0312 196.555 84.2578Z" fill="#98DFDC"/>
</mask>
<g mask="url(#mask0_1597_5988)">
<path fill-rule="evenodd" clip-rule="evenodd" d="M225.262 93.6021L220.253 112.368L245.78 133.031L246.676 131.987L221.83 111.875L226.616 93.9432L225.262 93.6021Z" fill="#D4EFEE" fill-opacity="0.5"/>
<path fill-rule="evenodd" clip-rule="evenodd" d="M209.855 87.5625L206.326 112.24L223.217 144.371L224.464 143.753L207.773 112.003L211.241 87.7495L209.855 87.5625Z" fill="#D4EFEE" fill-opacity="0.5"/>
<path fill-rule="evenodd" clip-rule="evenodd" d="M147.704 108.881C147.431 115.117 146.076 119.491 144.894 121.266L144.543 121.794L171.8 142L220.485 146.798L247.109 132.819L235.683 105.073L234.384 105.578L245.346 132.199L220.198 145.403L172.335 140.687L146.398 121.46C147.664 119.176 148.848 114.761 149.102 108.939C149.379 102.579 148.552 94.454 145.446 85.4023L144.118 85.8322C147.169 94.7216 147.974 102.681 147.704 108.881Z" fill="#D4EFEE" fill-opacity="0.5"/>
<path fill-rule="evenodd" clip-rule="evenodd" d="M176.235 83.9938L188.497 77.3766L187.818 76.1885L175.309 82.939L146.018 89.7132L146.342 91.0354L174.799 84.4541L173.491 102.236L145.779 121.079L146.581 122.192L174.839 102.978L176.235 83.9938ZM198.623 81.7322L197.281 81.3471L188.207 111.18L171.452 141.018L172.68 141.669L189.507 111.703L198.623 81.7322Z" fill="#D4EFEE" fill-opacity="0.5"/>
<path fill-rule="evenodd" clip-rule="evenodd" d="M189.063 110.766L174.533 102.029L173.797 103.185L188.651 112.117L221.025 112.801L221.055 111.442L189.063 110.766Z" fill="#D4EFEE" fill-opacity="0.5"/>
<path fill-rule="evenodd" clip-rule="evenodd" d="M198.655 112.15L200.054 144.091L201.452 144.033L200.053 112.092L198.655 112.15Z" fill="#D4EFEE" fill-opacity="0.5"/>
</g>
<ellipse rx="2.4593" ry="1.51874" transform="matrix(-0.97362 0.228174 0.241054 0.970512 108.622 98.353)" fill="#000C2A"/>
<ellipse rx="0.593839" ry="0.536088" transform="matrix(-0.97362 0.228174 0.241054 0.970512 107.865 98.5298)" fill="#E3E8F4"/>
</g>
<g clip-path="url(#clip0_1597_5988)">
<path d="M235.831 17.8802C249.85 67.5895 253.369 121.124 240.554 169.401C237.227 183.121 231.298 196.184 226.791 209.466C219.813 230.084 214.381 251.464 210.551 273.381C187.344 416.508 214.399 578.1 264.259 715.615C227.665 572.629 202.915 421.548 223.739 277.143C226.933 255.824 231.654 234.964 237.855 214.777C241.854 201.395 247.625 187.415 250.489 173.246C261.564 123.188 255.073 66.4617 235.831 17.8802Z" fill="url(#paint0_linear_1597_5988)"/>
<path d="M204.428 45.2614C205.276 86.767 208.05 127.441 204.951 168.02C196.138 235.306 194.381 306.82 209.131 375.119C206.629 326.99 207.555 278.963 211.9 231.531C213.449 210.886 216.904 191.854 219.05 170.614C221.577 128.661 216.599 85.9879 204.428 45.2614Z" fill="url(#paint1_linear_1597_5988)"/>
<path d="M177.733 21.6061C160.495 79.0482 158.767 145.473 177.946 205.758C181.267 216.469 184.326 227.301 186.792 238.321C197.581 286.958 201.15 336.213 201.852 386.049C207.218 356.016 209.034 325.012 207.249 293.873C206.001 262.392 200.6 231.007 191.235 200.824C172.613 143.002 171.923 81.0661 177.816 21.5894L177.733 21.6061Z" fill="url(#paint2_linear_1597_5988)"/>
<path d="M119.491 89.2335C143.667 122.82 162.079 160.659 169.371 202.246C171.768 214.059 172.493 231.769 173.168 243.864C175.075 272.751 179.134 301.553 185.3 329.942C191.514 358.16 199.64 386.464 212.197 412.142C197.873 356.971 191.074 300.138 187.298 243.64C186.985 238.282 186.292 227.512 185.807 222.155C181.563 170.699 155.826 120.657 119.463 89.2391L119.491 89.2335Z" fill="url(#paint3_linear_1597_5988)"/>
<path d="M107.447 161.242C137.227 209.006 156.606 263.49 172.825 318.242C182.588 352.212 191.221 388.105 198.104 422.727C202.656 443.32 206.282 466.133 210.807 486.732C210.742 472.276 210.122 457.764 209.384 443.242C203.481 370.606 186.841 297.236 155.041 232.024C141.899 206.296 126.989 180.758 107.447 161.242Z" fill="url(#paint4_linear_1597_5988)"/>
<path d="M248.646 237.831C246.303 275.836 238.019 312.579 224.197 346.275C219.453 357.403 213.733 369.373 210.693 381.68C198.057 431.682 204.823 488.353 221.179 538.266C216.211 487.77 212.142 435.059 224.249 387.536C227.065 375.681 232.412 364.701 236.517 353.398C249.06 317.781 255.158 277.272 248.646 237.831Z" fill="url(#paint5_linear_1597_5988)"/>
<path d="M337.358 261.945C314.612 297.057 290.73 330.672 265.196 362.791C255.646 373.108 247.728 385.305 241.761 398.89C220.108 453.806 219.271 518.119 222.391 579.019L223.231 591.217L232.551 586.242C236.337 584.253 237.173 578.899 237.795 574.47C239.203 559.077 239.582 543.503 238.93 527.886C238.377 501.975 236.934 475.635 235.342 449.833C233.505 407.411 241.859 366.003 253.118 326.75C267.367 278.877 285.593 232.994 307.549 189.722C290.28 216.688 275.033 245.406 261.961 275.586C240.047 327.099 222.339 383.077 221.955 442.69C222.96 479.454 225.802 516.082 224.979 552.607C225.017 559.798 224.548 566.942 223.575 573.967C224.208 572.752 225.14 571.799 226.26 571.22L236.338 578.459C234.281 548.702 234.142 518.952 235.924 489.462C237.888 460.397 241.705 430.99 251.404 404.693C256.298 391.196 263.537 380.917 271.878 369.839C296.047 335.962 317.932 299.901 337.358 261.945H337.358Z" fill="url(#paint6_linear_1597_5988)"/>
<path d="M259.919 447.218C231.776 513.141 223.605 610.455 253.9 681.258C242.998 601.945 250.815 524.661 259.919 447.218Z" fill="url(#paint7_linear_1597_5988)"/>
<path d="M166.655 375.781C186.104 428.851 199.749 486.381 215.879 543.408C221.223 563.277 226.985 582.77 233.123 601.749C230.124 571.182 224.86 539.578 217.612 508.618C206.02 459.85 187.665 398.853 166.743 375.763L166.655 375.781Z" fill="url(#paint8_linear_1597_5988)"/>
<path d="M239.905 707.173C187.233 662.835 171.559 582.491 160.843 513.712C150.659 441.471 147.825 368.687 146.263 295.949C136.553 367.933 136.747 441.99 146.839 515.402C157.425 584.817 179.766 673.126 239.905 707.173Z" fill="url(#paint9_linear_1597_5988)"/>
<path d="M115.705 293.273C106.973 298.603 107.326 313.068 108.833 323.605C114.638 356.311 132.815 385.219 148.626 412.506C162.868 436.293 175.941 460.954 187.775 486.357C199.448 511.881 209.153 538.448 216.766 565.727C220.812 579.442 224.181 593.498 228.577 607.379C227.315 592.963 225.792 578.668 223.629 564.334C216.511 520.854 202.076 478.91 181.175 440.971C174.389 428.32 167.23 415.948 159.475 404.036C146.025 382.301 96.9244 316.534 115.821 293.419L115.705 293.273Z" fill="url(#paint10_linear_1597_5988)"/>
<g clip-path="url(#clip1_1597_5988)">
<path d="M335.828 511.988C320.576 504.36 281.462 486.11 223.498 495.472C195.502 499.998 179.288 509.882 136.761 517.923C133.189 518.599 134.1 524.277 137.713 524.633C199.8 530.94 297.064 534.8 319.181 525.536L308.66 523.188L325.585 523.188L335.545 519.157C336.246 518.874 336.851 518.393 337.286 517.774C337.722 517.154 337.969 516.422 337.999 515.664C338.029 514.907 337.84 514.157 337.455 513.505C337.07 512.852 336.505 512.326 335.828 511.988Z" fill="#FFCBA6"/>
<path d="M337.794 516.762C337.619 517.303 337.326 517.798 336.937 518.212C336.548 518.626 336.073 518.949 335.545 519.157L325.585 523.188L308.66 523.188L319.181 525.562C310.364 529.257 289.6 530.862 263.884 531.058C253.466 531.012 242.548 530.878 231.456 530.677C199.707 529.773 165.251 527.456 137.713 524.659C137.59 524.659 137.471 524.612 137.353 524.591C137.835 524.333 138.357 524.159 138.897 524.075C233.51 505.598 301.897 510.909 337.794 516.762Z" fill="#FFEBDD"/>
<path d="M320.015 517.061C318.773 517.061 317.766 516.051 317.766 514.806C317.766 513.56 318.773 512.55 320.015 512.55C321.258 512.55 322.265 513.56 322.265 514.806C322.265 516.051 321.258 517.061 320.015 517.061Z" fill="#783200"/>
<path d="M294.66 525.556C298.263 523.079 298.412 516.478 295.37 513.386C295.326 513.346 295.27 513.323 295.21 513.32C295.151 513.317 295.093 513.334 295.045 513.369C294.997 513.405 294.963 513.455 294.948 513.513C294.933 513.571 294.938 513.632 294.963 513.686C296.729 517.299 296.657 522.104 294.66 525.556Z" fill="#FF9950"/>
<path d="M291.731 525.556C295.303 523.079 295.478 516.478 292.436 513.386C292.392 513.346 292.336 513.323 292.276 513.32C292.217 513.317 292.159 513.334 292.111 513.369C292.063 513.405 292.029 513.455 292.014 513.513C291.999 513.571 292.005 513.632 292.029 513.686C293.8 517.299 293.723 522.104 291.731 525.556Z" fill="#FF9950"/>
<path d="M288.797 525.557C292.374 523.079 292.549 516.478 289.502 513.386C289.46 513.342 289.402 513.315 289.341 513.31C289.28 513.305 289.219 513.322 289.17 513.359C289.121 513.396 289.087 513.449 289.074 513.509C289.061 513.569 289.071 513.632 289.101 513.686C290.866 517.299 290.794 522.104 288.797 525.557Z" fill="#FF9950"/>
<path d="M285.863 525.556C289.466 523.079 289.615 516.478 286.573 513.386C286.529 513.346 286.473 513.323 286.414 513.32C286.354 513.317 286.296 513.334 286.248 513.369C286.2 513.405 286.166 513.455 286.151 513.513C286.136 513.571 286.142 513.632 286.167 513.686C287.932 517.299 287.86 522.104 285.863 525.556Z" fill="#FF9950"/>
<path d="M264.337 554L266.571 554C267.567 553.998 268.549 553.767 269.441 553.324C270.334 552.881 271.113 552.238 271.718 551.445C275.363 546.666 282.898 536.044 285.297 527.043C285.424 526.551 285.436 526.036 285.333 525.538C285.23 525.04 285.015 524.573 284.704 524.172C284.393 523.77 283.994 523.446 283.538 523.223C283.082 523.001 282.582 522.886 282.075 522.888L264.934 522.888L258.284 527.533C257.455 528.11 256.884 528.989 256.692 529.982C256.499 530.974 256.701 532.003 257.254 532.849L262.283 540.534C263.183 541.908 263.611 543.539 263.503 545.179L263.03 552.643C263.022 552.819 263.05 552.995 263.113 553.16C263.175 553.325 263.27 553.476 263.392 553.603C263.515 553.73 263.662 553.831 263.824 553.899C263.986 553.967 264.161 554.001 264.337 554Z" fill="#FFCBA6"/>
<path d="M223.498 495.493C224.463 494.149 224.982 492.534 224.981 490.879L224.981 482.301C224.982 481.955 225.12 481.624 225.364 481.381C225.608 481.137 225.939 481 226.283 481L226.798 481C227.876 481 228.938 481.27 229.886 481.785C232.944 483.446 240.649 487.699 251.412 494.022C242.088 494.003 232.769 494.494 223.498 495.493Z" fill="#FFCBA6"/>
<path d="M165.74 511.905C165.74 511.709 165.766 511.503 165.766 511.301L165.766 502.723C165.768 502.378 165.905 502.047 166.149 501.803C166.393 501.56 166.724 501.423 167.068 501.423L167.583 501.423C168.662 501.423 169.723 501.693 170.672 502.207C172.458 503.178 175.819 505.031 180.451 507.663C175.64 508.929 170.737 510.343 165.74 511.905Z" fill="#FFCBA6"/>
<path d="M182.274 528.349C175.989 532.096 171.464 534.604 169.812 535.492C169.376 535.729 168.888 535.853 168.391 535.853L168.165 535.853C168.086 535.853 168.009 535.838 167.936 535.807C167.864 535.777 167.798 535.733 167.743 535.678C167.687 535.622 167.643 535.556 167.613 535.483C167.583 535.411 167.568 535.333 167.568 535.254L167.568 531.316C167.568 530.702 167.413 530.097 167.116 529.56C166.818 529.023 166.389 528.57 165.869 528.245L163.918 527.027C169.905 527.476 176.045 527.92 182.274 528.349Z" fill="#FFCBA6"/>
<path d="M216.055 530.135C209.173 534.093 204.247 536.808 201.952 538.057C201.003 538.571 199.942 538.841 198.863 538.842L198.349 538.842C198.005 538.842 197.675 538.705 197.431 538.461C197.188 538.217 197.051 537.886 197.051 537.541L197.051 529.221C203.388 529.572 209.745 529.897 216.055 530.135Z" fill="#FFCBA6"/>
<path d="M104.189 506.672C126.147 506.672 145.275 514.573 150.942 517.071C148.703 517.918 142.109 518.377 139.834 519.296C136.746 520.545 137.384 523.064 140.709 523.425C144.034 523.786 147.437 524.091 150.942 524.405C143.02 532.333 134.239 532.596 129.745 532.065C129.5 532.038 129.268 531.935 129.083 531.771C128.898 531.607 128.769 531.389 128.712 531.148C128.656 530.907 128.675 530.654 128.768 530.424C128.861 530.195 129.023 530 129.231 529.866L130.023 529.35C130.625 528.963 131.114 528.423 131.441 527.786C131.768 527.149 131.921 526.436 131.886 525.721C131.85 525.005 131.627 524.311 131.239 523.71C130.85 523.108 130.31 522.62 129.673 522.295L103.649 508.958C103.402 508.839 103.203 508.639 103.085 508.392C102.967 508.144 102.938 507.864 103.001 507.597C103.064 507.33 103.216 507.092 103.432 506.924C103.648 506.756 103.915 506.667 104.189 506.672Z" fill="#FFCBA6"/>
<mask id="mask1_1597_5988" style="mask-type:alpha" maskUnits="userSpaceOnUse" x="134" y="492" width="205" height="40">
<path d="M335.828 511.988C320.576 504.36 281.462 486.11 223.498 495.472C195.502 499.998 179.288 509.882 136.761 517.923C133.189 518.599 134.1 524.277 137.713 524.633C199.8 530.94 297.063 534.8 319.181 525.536L308.66 523.188L325.585 523.188L335.545 519.157C336.246 518.874 336.851 518.393 337.286 517.774C337.721 517.154 337.969 516.422 337.999 515.664C338.029 514.907 337.84 514.157 337.455 513.505C337.069 512.852 336.504 512.326 335.828 511.988Z" fill="#FFCBA6"/>
</mask>
<g mask="url(#mask1_1597_5988)">
<path d="M183.809 511.419L181.006 501.81L177.517 493.338L221.04 482.448L222.022 506.691L217.915 488.154L216.8 506.37L212.189 491.046L211.705 509.006L206.263 492.156L205.255 508.609L201.655 491.873L200.828 505.388L197.572 493.096L197.685 511.388L193.489 494.32L192.661 507.835L189.623 497.031L188.778 510.84L184.475 500.548L183.809 511.419Z" fill="#FFEBDD" stroke="#FFEBDD" stroke-linejoin="round"/>
</g>
<mask id="mask2_1597_5988" style="mask-type:alpha" maskUnits="userSpaceOnUse" x="134" y="492" width="205" height="40">
<path d="M335.828 511.988C320.576 504.36 281.462 486.11 223.498 495.472C195.502 499.998 179.288 509.882 136.761 517.923C133.189 518.599 134.1 524.277 137.713 524.633C199.8 530.94 297.063 534.8 319.181 525.536L308.66 523.188L325.585 523.188L335.545 519.157C336.246 518.874 336.851 518.393 337.286 517.774C337.721 517.154 337.969 516.422 337.999 515.664C338.029 514.907 337.84 514.157 337.455 513.505C337.069 512.852 336.504 512.326 335.828 511.988Z" fill="#FFCBA6"/>
</mask>
<g mask="url(#mask2_1597_5988)">
<path d="M295.968 506.622L298.709 492.015L300.174 506.672L305.568 492.095L305.725 506.565L311.465 493.912L311.606 506.842L316.325 490.313L251.599 475.446L253.168 504.473L255.681 481.971L258.911 503.612L262.334 484.899L264.837 506.292L269.013 485.683L271.931 505.229L274.08 484.923L276.476 500.979L278.732 486.01L280.611 507.853L283.383 487.097L285.78 503.153L287.958 489.98L290.407 506.385L294.04 493.708L295.968 506.622Z" fill="#000C2A" stroke="black" stroke-linejoin="round"/>
</g>
<mask id="mask3_1597_5988" style="mask-type:alpha" maskUnits="userSpaceOnUse" x="134" y="492" width="205" height="40">
<path d="M335.828 511.988C320.576 504.36 281.462 486.11 223.498 495.472C195.502 499.998 179.288 509.882 136.761 517.923C133.189 518.599 134.1 524.277 137.713 524.633C199.8 530.94 297.063 534.8 319.181 525.536L308.66 523.188L325.585 523.188L335.545 519.157C336.246 518.874 336.851 518.393 337.286 517.774C337.721 517.154 337.969 516.422 337.999 515.664C338.029 514.907 337.84 514.157 337.455 513.505C337.069 512.852 336.504 512.326 335.828 511.988Z" fill="#FFCBA6"/>
</mask>
<g mask="url(#mask3_1597_5988)">
<path d="M295.968 506.622L298.709 492.015L300.174 506.672L305.568 492.095L305.725 506.565L311.465 493.912L311.606 506.842L316.325 490.313L251.599 475.446L253.168 504.473L255.681 481.971L258.911 503.612L262.334 484.899L264.837 506.292L269.013 485.683L271.931 505.229L274.08 484.923L276.476 500.979L278.732 486.01L280.611 507.853L283.383 487.097L285.78 503.153L287.958 489.98L290.407 506.385L294.04 493.708L295.968 506.622Z" fill="#FFEBDD" stroke="#FFEBDD" stroke-linejoin="round"/>
</g>
</g>
<path d="M66.8734 348.453C64.8108 370.206 66.8036 392.526 72.718 413.914C78.6324 435.302 88.3315 455.262 101.164 472.456C106.453 479.194 112.11 485.53 118.097 491.417C129.329 502.929 140.069 514.845 150.674 527.229C192.336 576.987 229.257 633.637 253.293 697.069C235.881 612.267 184.058 535.769 126.421 479.834C90.2944 448.164 70.6232 399.026 66.8734 348.453Z" fill="url(#paint11_linear_1597_5988)"/>
<path d="M320.048 420.275C304.16 469.243 289.18 518.298 269.776 564.93C259.927 588.649 246.631 610.797 242.073 637.541C236.991 663.545 238.708 694.912 253.317 717.835C248.936 705.34 246.867 692.063 247.255 678.913C247.241 646.183 260.514 616.992 274.583 590.452C298.898 538.17 314.309 480.412 320.022 420.145L320.048 420.275Z" fill="url(#paint12_linear_1597_5988)"/>
</g>
<defs>
<linearGradient id="paint0_linear_1597_5988" x1="177.86" y1="29.6451" x2="314.984" y2="705.321" gradientUnits="userSpaceOnUse">
<stop stop-color="#00D688"/>
<stop offset="1" stop-color="#0069FF"/>
</linearGradient>
<linearGradient id="paint1_linear_1597_5988" x1="175.249" y1="51.1832" x2="239.729" y2="368.909" gradientUnits="userSpaceOnUse">
<stop stop-color="#0069FF"/>
<stop offset="1" stop-color="#00D688"/>
</linearGradient>
<linearGradient id="paint2_linear_1597_5988" x1="153.839" y1="26.4554" x2="225.829" y2="381.183" gradientUnits="userSpaceOnUse">
<stop stop-color="#00D688"/>
<stop offset="1" stop-color="#0069FF"/>
</linearGradient>
<linearGradient id="paint3_linear_1597_5988" x1="139.015" y1="85.2712" x2="205.622" y2="413.476" gradientUnits="userSpaceOnUse">
<stop stop-color="#00D688"/>
<stop offset="1" stop-color="#0069FF"/>
</linearGradient>
<linearGradient id="paint4_linear_1597_5988" x1="131.388" y1="156.383" x2="198.92" y2="489.144" gradientUnits="userSpaceOnUse">
<stop stop-color="#00D688"/>
<stop offset="1" stop-color="#0069FF"/>
</linearGradient>
<linearGradient id="paint5_linear_1597_5988" x1="204.971" y1="246.695" x2="262.444" y2="529.891" gradientUnits="userSpaceOnUse">
<stop stop-color="#0069FF"/>
<stop offset="1" stop-color="#00D688"/>
</linearGradient>
<linearGradient id="paint6_linear_1597_5988" x1="235.205" y1="204.404" x2="310.127" y2="573.582" gradientUnits="userSpaceOnUse">
<stop stop-color="#0069FF"/>
<stop offset="1" stop-color="#00D688"/>
</linearGradient>
<linearGradient id="paint7_linear_1597_5988" x1="232.04" y1="452.876" x2="277.42" y2="676.485" gradientUnits="userSpaceOnUse">
<stop stop-color="#0069FF"/>
<stop offset="1" stop-color="#00D688"/>
</linearGradient>
<linearGradient id="paint8_linear_1597_5988" x1="178.338" y1="373.41" x2="225.013" y2="603.395" gradientUnits="userSpaceOnUse">
<stop stop-color="#00D688"/>
<stop offset="1" stop-color="#0069FF"/>
</linearGradient>
<linearGradient id="paint9_linear_1597_5988" x1="129.609" y1="299.329" x2="213.468" y2="712.539" gradientUnits="userSpaceOnUse">
<stop stop-color="#00D688"/>
<stop offset="1" stop-color="#0069FF"/>
</linearGradient>
<linearGradient id="paint10_linear_1597_5988" x1="134.977" y1="289.362" x2="200.667" y2="613.043" gradientUnits="userSpaceOnUse">
<stop stop-color="#00D688"/>
<stop offset="1" stop-color="#0069FF"/>
</linearGradient>
<linearGradient id="paint11_linear_1597_5988" x1="118.63" y1="337.949" x2="193.955" y2="709.112" gradientUnits="userSpaceOnUse">
<stop stop-color="#0069FF"/>
<stop offset="1" stop-color="#00D688"/>
</linearGradient>
<linearGradient id="paint12_linear_1597_5988" x1="256.329" y1="433.071" x2="311.715" y2="705.984" gradientUnits="userSpaceOnUse">
<stop stop-color="#0069FF"/>
<stop offset="1" stop-color="#00D688"/>
</linearGradient>
<clipPath id="clip0_1597_5988">
<rect width="289.991" height="697.486" fill="white" transform="matrix(-0.980022 0.19889 0.19889 0.980022 284.197 0)"/>
</clipPath>
<clipPath id="clip1_1597_5988">
<rect width="235" height="73" fill="white" transform="matrix(-1 2.74872e-09 2.74872e-09 1 338 481)"/>
</clipPath>
</defs>
</svg>
